<svg version="1.2" xmlns="http://www.w3.org/2000/svg" viewBox="0 0 625 118" width="625" height="118"><style>.a{fill:#4687f4}.b{fill:#39aa5e}.c{fill:#eb483b}.d{fill:#ea4838}.e{fill:#fbbe0c}.f{fill:#4889f4}.g{fill:#4788f4}</style><path class="a" d="m18.5 67.6c-6.2-22.5-12.3-44.6-18.6-67.6 7.5 0 14.4-0.1 21.3 0.2 1 0 2.2 2.2 2.6 3.6 6.2 23.3 12.2 46.7 18.3 70.1 0.3 1.3 0.8 2.6 1.6 5.2 0.9-2.2 1.3-3.2 1.6-4.2 5.8-18.6 11.7-37.2 17.4-55.8 1-3.4 2.6-4.5 6-4.3 5.1 0.4 11.4-1.3 15 1.1 3.3 2.3 3.9 8.8 5.4 13.5 4.8 15.2 9.4 30.5 14.2 45.8 0.3 0.9 0.8 1.7 1.4 3.1 0.6-0.9 1.1-1.4 1.2-1.9 5.8-24.1 11.7-48.2 17.4-72.3 0.7-3.2 2.1-4.4 5.4-4.2 6 0.3 12 0.1 18.6 0.1-1.3 4.9-2.3 9.3-3.5 13.6-8.5 32-17.1 64-25.4 96-1 3.6-2.4 5-6.1 4.7-4.2-0.3-8.3-0.2-12.5 0-2.8 0.1-4.1-1-4.9-3.7-6.2-20-12.6-40-18.9-60-0.4-1.2-0.9-2.4-1.7-4.3-0.7 1.6-1.2 2.4-1.4 3.2-6.4 20.2-12.8 40.3-19 60.5-1 3.3-2.5 4.6-6 4.3-5.3-0.4-12 1.6-15.5-1-3.5-2.5-3.7-9.5-5.2-14.6-2.9-10.2-5.7-20.5-8.7-31.1z"/><path class="b" d="m451.1 114.4c-2.6-0.1-4.8-0.1-6.9-0.2-0.5 0-1-0.3-1.9-0.7 0-9.5 0.1-19.1 0-28.8 0-6 0.2-12-0.2-17.9-0.3-6.1-2.6-11.2-8.9-13.2-6.4-1.9-12.3-0.8-17 4.2-4.6 4.9-6.2 11-6.2 17.5-0.2 11-0.1 22-0.1 33 0 1.8 0 3.6 0 5.7-7 0-13.6 0-20.6 0 0-37.8 0-75.5 0-113.7 6.6 0 13.2 0 20.1 0 0 14.9 0 29.6 0 45.2 1.3-1.2 2.2-2.2 3.2-3.1 9.1-9.3 20.2-11.1 32.2-7.5 11.6 3.4 17.3 12.5 17.8 23.6 0.9 18.2 0.3 36.6 0.3 55.9q-5.2 0-11.8 0z"/><path fill-rule="evenodd" class="c" d="m478.9 91.1c-7.5-22.9 1.9-45.9 22-54.6 28.3-12.2 57.5 8.7 55.5 39.7-0.2 3.2-1.4 4.3-4.6 4.2-16.1-0.1-32.3 0-48.4 0-1.8 0-3.6 0-5.3 0-0.8 8.1 5.7 15.9 14.3 17.6 9.1 1.8 17.3 0 23.1-8 1.6-2.2 2.9-2.6 5.3-1.3 4.5 2.5 9.1 4.6 14.2 7.2-8.8 14-20.4 21.4-36.9 21.2-18.6-0.2-31.7-8.5-39.2-26zm48.5-25.8q3.9 0 7.9 0c-1-8.9-8.5-14.9-18-14.9-9.2 0-17.3 6.4-18.3 14.9 9.2 0 18.3 0 28.4 0z"/><path fill-rule="evenodd" class="d" d="m193.3 98c4.2-2.7 8.2-5 11.5-8 2-1.8 3.2-2.5 5.5-1.2 4.4 2.4 8.9 4.5 14 7-4.2 7.5-9.7 13.4-17.1 17-20 10-53 4.5-60.5-27.2-7.2-30.7 17.7-57 48.5-51.5 20.3 3.6 33.5 23.6 29.9 46.2-19.2 0-38.6 0-57.9 0 0 12.5 10.6 19.5 26.1 17.7zm6.8-42.6c-6.5-5.5-13.8-6.4-21.5-3.2-5.6 2.3-9.1 6.6-10.8 12.8 12.9 0 24.9 0 38.3 0-2.2-3.6-3.9-6.3-6-9.6z"/><path fill-rule="evenodd" class="e" d="m245.7 111.4c-9.3-8.1-12.7-18.7-9-28.9 4.4-12.1 14.3-17.4 26.3-18.1 8-0.4 16.1 1 24.4 1.6 1.3-3.9-0.5-8.8-5.3-12.2-8.3-5.9-17.2-4.2-30.1 5.9-4.6-3.4-9.4-6.9-14.6-10.6 8.2-10.5 18.7-15 31-15.7 4.9-0.2 10 0.2 14.9 1 15.3 2.8 24.9 13.4 25.4 29 0.5 16 0.2 32 0.1 48 0 1.1-1.5 3.2-2.3 3.3-6 0.3-11.9 0.1-18 0.1-0.3-2.7-0.5-4.8-0.9-8-13 12.7-26.9 13.6-41.9 4.6zm11.5-24.6c-1.7 6.8 0.5 11 7 13.3 7.8 2.8 17.9-1.1 21.9-8.6 3.6-6.8 2.8-9-4.7-10.8-3.7-0.9-7.5-1.4-11.3-1.3-5.1 0.2-9.8 1.9-12.9 7.4z"/><path class="f" d="m335.3 11.9c5.2 0 9.8 0.1 14.5-0.1 3.1-0.1 4 1.2 4 4.1-0.2 6.2-0.1 12.3-0.1 19.2 6.4 0 12.5 0 18.8 0 0 6.3 0 11.9 0 18.4-4.7 0-9.3 0.2-13.9-0.1-3.7-0.2-5.1 1-5 4.8 0.3 8.6 0 17.3 0.2 26 0.1 9.5 4.6 12.7 14 10.2 0.6-0.1 1.2-0.2 2.5-0.4q2.8 8.8 5.5 17.3c-20.3 12.1-42.8 0-43.4-23-0.3-9.6-0.3-19.3 0-29 0.2-4.4-1-6.5-5.8-5.9-2.2 0.3-4.6 0.1-7.3 0.1 0-6.2 0-11.9 0-18.2 4.2 0 8.3 0 13 0 0-6.8-0.1-12.9 0.1-19 0.1-1.5 1.6-2.9 2.9-4.4z"/><path class="g" d="m590.8 74.3c0 13.4 0 26.3 0 39.6-7.4 0-14.1 0-21.1 0-0.1-1.7-0.3-3.2-0.3-4.7 0-22.6 0.1-45.3-0.1-67.9 0-4.1 1-5.9 5.3-5.4 2.7 0.2 5.4 0 8 0 6.8 0 6.8 0 7 6.6 0.1 1 0.2 1.9 0.4 3.8 1.4-1.6 2.4-2.7 3.3-3.7 6.9-8 18.6-11.2 28.1-7.9 3 1 4 2.4 2.9 5.5-1.7 4.8-3.1 9.8-4.6 14.6-18.8-3.1-27.1 2.5-28.9 19.5z"/></svg>